<?xml version="1.0" encoding="UTF-8" standalone="no"?>
<svg
   xmlns:dc="http://purl.org/dc/elements/1.1/"
   xmlns:cc="http://creativecommons.org/ns#"
   xmlns:rdf="http://www.w3.org/1999/02/22-rdf-syntax-ns#"
   xmlns:svg="http://www.w3.org/2000/svg"
   xmlns="http://www.w3.org/2000/svg"
   xmlns:sodipodi="http://sodipodi.sourceforge.net/DTD/sodipodi-0.dtd"
   xmlns:inkscape="http://www.inkscape.org/namespaces/inkscape"
   height="24px"
   version="1.1"
   viewBox="0 0 24 24"
   width="24px"
   id="svg2"
   inkscape:version="0.91 r13725"
   sodipodi:docname="back.svg">
  <metadata
     id="metadata16">
    <rdf:RDF>
      <cc:Work
         rdf:about="">
        <dc:format>image/svg+xml</dc:format>
        <dc:type
           rdf:resource="http://purl.org/dc/dcmitype/StillImage" />
        <dc:title></dc:title>
      </cc:Work>
    </rdf:RDF>
  </metadata>
  <sodipodi:namedview
     pagecolor="#ffffff"
     bordercolor="#666666"
     borderopacity="1"
     objecttolerance="10"
     gridtolerance="10"
     guidetolerance="10"
     inkscape:pageopacity="0"
     inkscape:pageshadow="2"
     inkscape:window-width="950"
     inkscape:window-height="584"
     id="namedview14"
     showgrid="false"
     inkscape:zoom="9.8333333"
     inkscape:cx="18.648379"
     inkscape:cy="12"
     inkscape:window-x="0"
     inkscape:window-y="0"
     inkscape:window-maximized="0"
     inkscape:current-layer="Artboard-1" />
  <desc
     id="desc6" />
  <defs
     id="defs8" />
  <g
     fill="none"
     fill-rule="evenodd"
     id="miu"
     stroke="none"
     stroke-width="1">
    <g
       id="Artboard-1"
       transform="matrix(1.0397937,0,0,1.0353722,-411.67354,-160.27929)">
      <g
         id="slice"
         transform="translate(215,119)" />
      <path
         d="m 411.08343,166.99764 -3.03554,3.03553 0.70711,0.70711 4.24264,-4.24264 -4.24264,-4.24264 -0.70711,0.70711 3.0371,3.03709 -9.08263,0 0,0.99844 z M 396,166.40178 C 396,160.05051 401.14873,155 407.5,155 c 6.35127,0 11.5,5.14873 11.5,11.5 0,6.35127 -5.14873,11.5 -11.5,11.5 -6.35127,0 -11.5,-5.24695 -11.5,-11.59822 z"
         id="circle-arrow_back-previous-glyph"
         transform="matrix(-1,0,0,1,815,0)"
         inkscape:connector-curvature="0"
         style="fill:#dc143c;fill-opacity:1"
         sodipodi:nodetypes="ccccccccccsssss" />
    </g>
  </g>
</svg>
