<?xml version="1.0" ?><!DOCTYPE svg  PUBLIC '-//W3C//DTD SVG 1.1//EN'  'http://www.w3.org/Graphics/SVG/1.1/DTD/svg11.dtd'><svg enable-background="new 0 0 100 100" height="100px" id="Layer_1" version="1.1" viewBox="0 0 100 100" width="100px" xml:space="preserve" xmlns="http://www.w3.org/2000/svg" xmlns:xlink="http://www.w3.org/1999/xlink"><g><g><g><g/></g><g/></g></g><g><path d="M71,16h-3v-6c0-1.104-0.896-2-2-2s-2,0.896-2,2v6H32v-6c0-1.104-0.896-2-2-2s-2,0.896-2,2v6h-2   c-5.514,0-10,4.486-10,10v49c0,5.514,4.486,10,10,10h45c5.514,0,10-4.486,10-10V26C81,20.486,76.514,16,71,16z M26,20h2v2.555   c-1.19,0.692-2,1.968-2,3.445c0,2.21,1.79,4,4,4s4-1.79,4-4c0-1.478-0.81-2.753-2-3.445V20h32v2.555c-1.19,0.692-2,1.968-2,3.445   c0,2.21,1.79,4,4,4s4-1.79,4-4c0-1.478-0.81-2.753-2-3.445V20h3c3.309,0,6,2.691,6,6v7H20v-7C20,22.691,22.691,20,26,20z M43,57V47   h10v10H43z M53,59v10H43V59H53z M41,57H31V47h10V57z M55,47h10v10H55V47z M55,45V35h10v10H55z M53,45H43V35h10V45z M41,45H31V35h10   V45z M29,45h-9V35h9V45z M29,47v10h-9V47H29z M29,59v10h-9V59H29z M31,59h10v10H31V59z M41,71v10H31V71H41z M43,71h10v10H43V71z    M55,71h10v10H55V71z M55,69V59h10v10H55z M67,59h10v10H67V59z M67,57V47h10v10H67z M67,45V35h10v10H67z M20,75v-4h9v10h-3   C22.691,81,20,78.309,20,75z M71,81h-4V71h10v4C77,78.309,74.309,81,71,81z" fill="#231F20"/><polygon fill="#231F20" points="31.758,42.829 33.172,44.243 36,41.414 38.828,44.243 40.242,42.829 37.414,40 40.242,37.171    38.828,35.757 36,38.586 33.172,35.757 31.758,37.171 34.586,40  "/><polygon fill="#231F20" points="64.242,49.171 62.828,47.757 60,50.586 57.172,47.757 55.758,49.171 58.586,52 55.758,54.829    57.172,56.243 60,53.414 62.828,56.243 64.242,54.829 61.414,52  "/></g></svg>